<?xml version="1.0" encoding="utf-8"?>
<!-- Generator: Adobe Illustrator 16.0.0, SVG Export Plug-In . SVG Version: 6.00 Build 0)  -->
<!DOCTYPE svg PUBLIC "-//W3C//DTD SVG 1.1//EN" "http://www.w3.org/Graphics/SVG/1.1/DTD/svg11.dtd">
<svg version="1.1" xmlns="http://www.w3.org/2000/svg" xmlns:xlink="http://www.w3.org/1999/xlink" x="0px" y="0px" width="108px"
	 height="108px" viewBox="0 0 108 108" enable-background="new 0 0 108 108" xml:space="preserve">
<g id="Layer_2" display="none">
	<rect display="inline" width="108" height="108"/>
</g>
<g id="Layer_3" display="none">
	<circle display="inline" fill="#050505" cx="54" cy="54" r="54"/>
</g>
<g id="Layer_1">
	<g>
		<polygon fill="#FFFFFF" points="67.367,27.593 37.129,27.377 26.141,44.284 26.141,46.217 51.874,51.754 65.267,29.537 
			79.881,46.872 83.579,46.837 		"/>
		<path fill="#FFFFFF" d="M52.799,53.336l-25.268-5.57l0.009,21.853l14.775,6.323V61.948l7.366,2.189v14.957l3.518,1.506v0.022
			l25.188-10.772V48.69v-0.456v-1.07L65.381,31.76L52.799,53.336z M37.623,67.6l-6.261-2.179v-5.248l6.261,1.93V67.6z
			 M37.955,59.024l-6.29-1.795v-5.261l6.29,1.545V59.024z M49.684,62.369l-7.367-2.104v-5.68l7.367,1.809V62.369z M65.521,69.011
			l-7.568,2.648v-6.135l7.568-2.335V69.011z M68.466,53.59l6.566-1.615v5.433l-6.566,1.886V53.59z M68.41,62.299l6.573-2.03v5.435
			l-6.573,2.3V62.299z M65.584,60.122l-7.567,2.174v-6.132l7.567-1.865V60.122z"/>
	</g>
</g>
<g id="Layer_4" display="none">
	<path display="inline" fill="#FFFFFF" d="M55.994,41.673h5.385v6.054h3.553v-20.39c0-1.407-1.14-2.548-2.547-2.548H37.237
		c-1.407,0-2.549,1.141-2.549,2.548v51.737c0,1.407,1.142,2.549,2.549,2.549h9.048V65.057h7.008V51.193
		c0-1.505,1.108-2.756,2.7-3.244L55.994,41.673L55.994,41.673z M55.994,29.885h5.385v7.646h-5.385V29.885z M43.718,72.872h-5.384
		v-7.646h5.384V72.872z M43.718,61.68h-5.384v-7.646h5.384V61.68z M43.718,49.318h-5.384v-7.646h5.384V49.318z M43.718,37.531
		h-5.384v-7.646h5.384V37.531z M52.698,61.68h-5.383v-7.646h5.383V61.68z M52.698,49.318h-5.383v-7.646h5.383V49.318z
		 M52.698,37.531h-5.383v-7.646h5.383V37.531z M79.249,49.765H57.95c-1.192,0-2.159,0.639-2.159,1.428v29.001
		c0,0.789,0.967,1.428,2.159,1.428h7.663v-9.285h6.153v9.285h7.482c1.191,0,2.158-0.639,2.158-1.428V51.193
		C81.407,50.404,80.44,49.765,79.249,49.765z M63.438,76.718h-4.561v-4.286h4.561V76.718z M63.438,70.443h-4.561v-4.285h4.561
		V70.443z M63.438,63.516h-4.561v-4.287h4.561V63.516z M63.438,56.907h-4.561v-4.285h4.561V56.907z M71.046,70.443h-4.561v-4.285
		h4.561V70.443z M71.046,63.516h-4.561v-4.287h4.561V63.516z M71.046,56.907h-4.561v-4.285h4.561V56.907z M78.397,76.813h-4.56
		v-4.285h4.56V76.813z M78.397,70.443h-4.56v-4.285h4.56V70.443z M78.397,63.516h-4.56v-4.287h4.56V63.516z M78.397,56.907h-4.56
		v-4.285h4.56V56.907z"/>
</g>
<g id="Layer_5" display="none">
	<g display="inline">
		<path fill="#FFFFFF" d="M77.119,38.199c-0.4-0.186-0.822-0.284-1.217-0.284c-0.572,0-1.049,0.2-1.348,0.561
			c-1.762,2.145-3.373,6.316-4.674,9.667c-0.596,1.55-1.396,3.624-1.939,4.597c-0.297-2.853,0.982-13.139,1.477-17.1l0.008-0.064
			c0.344-2.752,0.396-3.235,0.379-3.45c-0.133-1.532-0.666-2.569-1.592-3.081c-0.934-0.519-2.201-0.407-3.609,0.315
			c-0.705,0.364-0.992,1.763-2.021,8.123l-0.004,0.028c-0.564,3.494-1.869,11.539-2.869,12.824
			c-0.891-1.958-1.549-12.775-1.832-17.457c-0.197-3.279-0.315-5.162-0.442-5.737c-0.269-1.205-1.678-2.313-3.139-2.471
			c-1.215-0.146-2.259,0.407-2.812,1.456c-0.963,0.936-0.879,4.269-0.44,12.18c0.209,3.765,0.64,11.542-0.031,12.364
			c-1.208-0.218-2.96-5.193-5.208-14.791c-0.631-2.688-0.828-3.497-1.054-3.861c-0.409-1.241-2.021-2.289-3.532-2.289
			c-0.129,0-0.255,0.008-0.38,0.023c-0.798,0.102-2.645,0.704-2.497,4.089c0.735,4.73,1.648,8.229,2.534,11.625l0.018,0.068
			c0.53,2.034,1.031,3.956,1.473,6.081c1.041,5.018,0.289,8.032,0.28,8.067c-0.068,0.311-0.178,0.494-0.328,0.552
			c-0.054,0.021-0.122,0.031-0.198,0.031c-0.441,0-1.079-0.339-1.405-0.552c-0.671-1.543-4.034-8.903-7.462-10.131l-0.123-0.046
			l-0.128,0.003c-1.291,0.032-2.268,0.453-2.903,1.251c-1.006,1.262-0.746,2.977-0.678,3.322l0.043,0.125
			c0.025,0.053,2.47,5.385,2.737,7.803c0.231,2.073,2.012,4.429,3.444,6.321l0.059,0.076c0.467,0.619,0.87,1.154,1.183,1.646
			c4.186,5.048,11.051,9.528,11.107,9.563c0.845,0.724,1.296,1.396,1.31,1.949c0.008,0.362-0.193,0.564-0.2,0.571l-0.167,0.151
			l0.92,1.033l18.939-0.012l1.063-3.643c3.215-10.271,3.32-19.213,3.314-19.272c0.033-0.327,0.951-3.446,1.689-5.967l0.021-0.064
			c1.473-5.022,3.305-11.271,3.74-13.666C78.813,39.704,78.223,38.709,77.119,38.199z"/>
	</g>
</g>
</svg>
