<?xml version="1.0" encoding="utf-8"?>
<!-- Generator: Adobe Illustrator 16.0.0, SVG Export Plug-In . SVG Version: 6.00 Build 0)  -->
<!DOCTYPE svg PUBLIC "-//W3C//DTD SVG 1.1//EN" "http://www.w3.org/Graphics/SVG/1.1/DTD/svg11.dtd">
<svg version="1.1" id="Layer_1" xmlns="http://www.w3.org/2000/svg" xmlns:xlink="http://www.w3.org/1999/xlink" x="0px" y="0px"
	 width="317px" height="90px" viewBox="0 0 317 90" enable-background="new 0 0 317 90" xml:space="preserve">
<g>
	<path fill="#FFDE5D" d="M80.127,68.6c-11.926-2.188-22.183-10.922-28.494,0.577c-3.285-3.646-2.188-9.562-20.122-2.624
		c-2.211,0.492-3.663,0.415-6.062,1.312c-0.189-0.489-1.98,1.049-2.276,0.212c-4.097-11.593-7.479-21.252-11.645-32.819
		c-0.298-0.83-1.178-1.708-2-2.041c-2.129-0.861-3.154-2.608-2.332-4.548c0.652-1.537,2.775-2.224,4.356-1.409
		c1.785,0.92,2.192,2.755,1.049,4.748c-0.189,0.331-0.404,0.646-0.717,1.142c5.271,6.231,10.739,12.229,18.1,16.03
		c5.419,2.797,8.715,1.726,11.815-3.592c4.074-6.987,5.766-14.801,7.571-22.561c0.578-2.483,0.937-5.017,1.479-7.509
		c0.352-1.616,0.573-2.956-0.941-4.333c-1.145-1.042-0.725-2.664,0.551-3.653c1.37-1.062,2.815-0.884,3.917,0.44
		c1.034,1.243,1.091,2.935-0.276,3.667c-1.905,1.02-1.417,2.298-1.058,3.687c2.183,8.447,4.225,16.937,6.692,25.301
		c0.785,2.662,2.55,5.106,4.183,7.426c1.742,2.472,4.301,3.043,7.234,2.181c5.004-1.47,8.855-4.713,12.513-8.173
		c2.97-2.809,5.692-5.881,8.336-8.639c-0.546-1.316-1.169-2.259-1.301-3.267c-0.216-1.641,0.56-2.941,2.292-3.211
		c1.785-0.278,3.313,0.345,3.785,2.248c0.412,1.663-0.044,3.343-1.871,3.689c-1.806,0.343-2.278,1.41-2.787,2.867
		c-3.974,11.389-7.662,21.483-11.685,32.855C80.782,67.328,80.438,67.831,80.127,68.6 M52.015,55.861c-0.343,0-0.686,0-1.029-0.002
		c-0.56,0.927-1.608,1.896-1.533,2.767c0.067,0.771,1.305,1.882,2.172,2.038c1.417,0.255,2.425-0.892,2.152-2.301
		C53.6,57.45,52.63,56.689,52.015,55.861"/>
	<path fill="#FFDE5D" d="M38.207,47.544c-1.604,1.97-2.645,2.312-5.465,1.302c-1.081-0.388-2.087-0.984-3.132-1.474
		c-1.371-0.642-1.727-1.425-1.336-3.096c0.787-3.366,1.16-6.839,1.546-10.285c0.205-1.826,0.575-3.673-1.495-5.095
		c-1.164-0.799-0.849-2.441,0.273-3.469c1.196-1.096,2.779-1.221,3.669,0.065c0.587,0.848,0.775,2.997,0.249,3.403
		c-1.729,1.332-1.176,2.661-0.586,4.06C33.927,37.696,35.991,42.409,38.207,47.544"/>
	<path fill="#FFDE5D" d="M68.653,49.504c-3.062-0.322-4.793-3.404-3.603-5.981c1.837-3.981,3.427-8.079,4.994-12.176
		c0.227-0.593-0.06-1.593-0.452-2.171c-1.027-1.514-1.131-2.869,0.302-4.094c1.156-0.988,3.182-0.719,3.875,0.569
		c0.837,1.555,0.577,2.908-1.009,4.004c-0.542,0.375-1.103,1.309-1.024,1.905c0.622,4.718,1.435,9.411,2.076,14.126
		c0.085,0.628-0.275,1.68-0.759,1.955C71.677,48.424,70.131,48.904,68.653,49.504"/>
</g>
<g>
	<path fill="#3D1D12" d="M119.782,76.016c-0.313,0.43-0.677,0.797-1.092,1.105c-0.417,0.307-0.872,0.543-1.369,0.707
		c-0.496,0.162-1.013,0.244-1.552,0.244c-0.685,0-1.266-0.128-1.744-0.385c-0.478-0.258-0.848-0.604-1.111-1.037
		c-0.263-0.436-0.425-0.94-0.486-1.516c-0.063-0.575-0.019-1.187,0.128-1.836c0.159-0.698,0.404-1.355,0.734-1.975
		c0.331-0.617,0.738-1.159,1.222-1.625c0.483-0.465,1.038-0.836,1.662-1.11c0.624-0.275,1.315-0.413,2.075-0.413
		c0.489,0,0.934,0.072,1.331,0.22c0.398,0.146,0.731,0.354,1.001,0.622c0.269,0.27,0.465,0.603,0.587,1
		c0.123,0.396,0.159,0.84,0.11,1.328l-8.08,2.713c-0.049,0.463-0.03,0.897,0.055,1.301s0.239,0.758,0.459,1.063
		c0.22,0.306,0.515,0.547,0.882,0.725c0.367,0.177,0.808,0.266,1.322,0.266c0.428,0,0.848-0.067,1.258-0.202s0.783-0.327,1.12-0.579
		c0.336-0.25,0.633-0.551,0.891-0.9c0.257-0.348,0.453-0.743,0.588-1.184h0.752C120.343,75.099,120.094,75.588,119.782,76.016z
		 M119.837,69.424c-0.435-0.391-1.019-0.587-1.753-0.587c-0.65,0-1.234,0.118-1.754,0.357s-0.98,0.558-1.377,0.955
		c-0.398,0.397-0.732,0.856-1.001,1.378c-0.269,0.52-0.471,1.067-0.606,1.643c-0.012,0.063-0.021,0.113-0.027,0.156
		c-0.007,0.043-0.016,0.095-0.028,0.156l7.199-2.424C120.49,70.361,120.272,69.816,119.837,69.424z"/>
	<path fill="#3D1D12" d="M130.533,77.871c-0.306,0-0.551-0.043-0.734-0.129s-0.325-0.205-0.422-0.357
		c-0.098-0.153-0.156-0.334-0.174-0.543c-0.019-0.207-0.009-0.434,0.027-0.679c-0.465,0.612-1.028,1.083-1.689,1.413
		c-0.661,0.331-1.384,0.496-2.167,0.496c-0.686,0-1.268-0.128-1.745-0.385c-0.478-0.258-0.848-0.604-1.11-1.037
		c-0.264-0.436-0.426-0.94-0.487-1.516c-0.062-0.575-0.019-1.187,0.128-1.836c0.159-0.698,0.404-1.355,0.735-1.975
		c0.331-0.617,0.737-1.159,1.221-1.625c0.484-0.465,1.038-0.836,1.662-1.11c0.625-0.275,1.316-0.413,2.075-0.413
		c0.686,0,1.27,0.146,1.754,0.44c0.483,0.294,0.823,0.716,1.019,1.268l0.735-3.159c0.073-0.33,0.098-0.59,0.073-0.779
		c-0.024-0.191-0.086-0.334-0.184-0.432c-0.099-0.099-0.22-0.16-0.367-0.184c-0.146-0.025-0.293-0.037-0.44-0.037l0.422-0.68
		c0.257,0,0.483,0.031,0.68,0.092c0.196,0.062,0.355,0.165,0.477,0.312c0.123,0.147,0.199,0.343,0.23,0.589
		c0.029,0.244,0.002,0.55-0.083,0.918l-2.111,9.145c-0.074,0.343-0.101,0.614-0.083,0.816c0.019,0.201,0.074,0.355,0.166,0.459
		c0.092,0.104,0.208,0.172,0.349,0.202c0.141,0.03,0.297,0.046,0.468,0.046L130.533,77.871z M130.276,71.365
		c0.061-0.807-0.141-1.43-0.606-1.869c-0.465-0.439-1.096-0.659-1.891-0.659c-0.661,0-1.258,0.118-1.79,0.356
		c-0.533,0.238-1.001,0.563-1.405,0.972c-0.404,0.409-0.744,0.882-1.019,1.42s-0.486,1.106-0.633,1.704
		c-0.135,0.55-0.181,1.074-0.138,1.576c0.043,0.501,0.175,0.94,0.395,1.318c0.221,0.379,0.53,0.679,0.927,0.898
		c0.398,0.22,0.897,0.33,1.497,0.33c0.428,0,0.854-0.067,1.276-0.201c0.422-0.135,0.813-0.324,1.175-0.568
		c0.361-0.244,0.673-0.543,0.936-0.898c0.263-0.354,0.444-0.751,0.542-1.191L130.276,71.365z"/>
	<path fill="#3D1D12" d="M140.026,77.871c-0.393,0-0.687-0.064-0.882-0.193c-0.196-0.129-0.325-0.299-0.386-0.514
		s-0.08-0.453-0.055-0.717c0.024-0.263,0.061-0.528,0.11-0.799c-0.416,0.809-0.977,1.414-1.68,1.818
		c-0.704,0.404-1.473,0.605-2.305,0.605c-1.041,0-1.787-0.303-2.24-0.908s-0.557-1.43-0.312-2.47l0.936-4.114
		c0.074-0.342,0.102-0.614,0.083-0.816c-0.019-0.201-0.074-0.354-0.166-0.459c-0.092-0.104-0.211-0.171-0.358-0.202
		c-0.147-0.03-0.3-0.046-0.459-0.046l0.441-0.661c0.244,0,0.468,0.031,0.67,0.093c0.202,0.061,0.361,0.165,0.478,0.313
		c0.116,0.146,0.193,0.341,0.229,0.58c0.036,0.238,0.012,0.542-0.074,0.91l-0.955,4.121c-0.208,0.896-0.141,1.62,0.202,2.172
		s0.974,0.828,1.892,0.828c0.526,0,1.012-0.102,1.46-0.305c0.447-0.201,0.842-0.471,1.185-0.809c0.342-0.338,0.633-0.73,0.872-1.178
		s0.413-0.918,0.523-1.408l1.212-5.317h0.771l-1.689,7.364c-0.073,0.33-0.098,0.594-0.073,0.789c0.024,0.195,0.085,0.34,0.184,0.432
		c0.098,0.092,0.217,0.15,0.358,0.174c0.141,0.025,0.291,0.037,0.45,0.037L140.026,77.871z"/>
	<path fill="#3D1D12" d="M148.996,76.016c-0.312,0.43-0.676,0.797-1.092,1.105c-0.417,0.307-0.872,0.543-1.368,0.707
		c-0.495,0.162-1.013,0.244-1.551,0.244c-0.686,0-1.267-0.128-1.744-0.385c-0.478-0.258-0.848-0.604-1.111-1.037
		c-0.264-0.436-0.425-0.94-0.487-1.516c-0.061-0.575-0.018-1.187,0.129-1.836c0.159-0.698,0.404-1.355,0.734-1.975
		c0.33-0.617,0.737-1.159,1.221-1.625c0.483-0.465,1.037-0.836,1.662-1.11c0.624-0.275,1.316-0.413,2.075-0.413
		c0.489,0,0.933,0.072,1.331,0.22c0.397,0.147,0.733,0.358,1.006,0.634c0.273,0.275,0.472,0.609,0.597,1.002
		c0.125,0.391,0.162,0.838,0.113,1.339h-0.789c0.063-0.808-0.124-1.433-0.559-1.872c-0.435-0.441-1.051-0.661-1.846-0.661
		c-0.662,0-1.256,0.122-1.782,0.366c-0.526,0.244-0.988,0.57-1.386,0.98c-0.398,0.408-0.732,0.883-1,1.42
		c-0.27,0.537-0.472,1.1-0.606,1.686c-0.123,0.537-0.168,1.057-0.137,1.559c0.03,0.5,0.149,0.939,0.358,1.318
		c0.208,0.379,0.507,0.681,0.899,0.906c0.392,0.227,0.882,0.34,1.47,0.34c0.428,0,0.847-0.067,1.257-0.202s0.783-0.327,1.12-0.579
		c0.336-0.25,0.634-0.551,0.891-0.9c0.257-0.348,0.453-0.743,0.588-1.184h0.753C149.556,75.099,149.308,75.588,148.996,76.016z"/>
	<path fill="#3D1D12" d="M159.765,77.871c-0.294,0-0.536-0.043-0.725-0.129c-0.19-0.086-0.334-0.205-0.432-0.357
		c-0.099-0.153-0.154-0.334-0.165-0.543c-0.012-0.207,0-0.434,0.036-0.679c-0.477,0.612-1.047,1.083-1.708,1.413
		c-0.661,0.331-1.384,0.496-2.167,0.496c-0.686,0-1.268-0.128-1.745-0.385c-0.478-0.258-0.848-0.604-1.11-1.037
		c-0.264-0.436-0.426-0.94-0.486-1.516c-0.062-0.575-0.019-1.187,0.128-1.836c0.159-0.698,0.403-1.355,0.734-1.975
		c0.331-0.617,0.738-1.159,1.221-1.625c0.483-0.465,1.038-0.836,1.662-1.11c0.624-0.275,1.316-0.413,2.075-0.413
		c0.686,0,1.27,0.146,1.754,0.44c0.483,0.294,0.822,0.716,1.019,1.268l0.331-1.488h0.789l-1.707,7.382
		c-0.074,0.33-0.099,0.591-0.074,0.781c0.024,0.189,0.086,0.33,0.184,0.422s0.221,0.15,0.368,0.174
		c0.146,0.025,0.293,0.037,0.44,0.037L159.765,77.871z M159.508,71.365c0.061-0.807-0.141-1.43-0.606-1.869
		c-0.464-0.439-1.095-0.659-1.891-0.659c-0.662,0-1.258,0.118-1.791,0.356c-0.533,0.238-1,0.563-1.405,0.972
		c-0.404,0.409-0.744,0.882-1.019,1.42c-0.276,0.538-0.487,1.106-0.634,1.704c-0.135,0.55-0.18,1.074-0.138,1.576
		c0.042,0.501,0.175,0.94,0.395,1.318c0.221,0.379,0.53,0.679,0.927,0.898c0.398,0.22,0.897,0.33,1.497,0.33
		c0.428,0,0.854-0.067,1.276-0.201c0.422-0.135,0.814-0.324,1.175-0.568s0.673-0.543,0.937-0.898
		c0.263-0.354,0.444-0.751,0.542-1.191L159.508,71.365z"/>
	<path fill="#3D1D12" d="M162.519,77.871c-0.232,0-0.446-0.027-0.642-0.083c-0.196-0.056-0.358-0.156-0.486-0.304
		c-0.129-0.146-0.212-0.342-0.249-0.587c-0.036-0.245-0.012-0.556,0.074-0.937l1.598-6.959h-0.992l0.146-0.606h0.992l0.588-2.405
		l0.825-0.238l-0.642,2.644h0.991l-0.147,0.606h-0.991l-1.542,6.738c-0.074,0.344-0.099,0.609-0.074,0.799s0.083,0.334,0.175,0.432
		c0.092,0.099,0.212,0.16,0.358,0.184c0.146,0.025,0.293,0.037,0.44,0.037L162.519,77.871z"/>
	<path fill="#3D1D12" d="M173.041,73.133c-0.147,0.649-0.384,1.271-0.707,1.864c-0.325,0.594-0.723,1.12-1.194,1.579
		c-0.471,0.459-1.013,0.824-1.625,1.092c-0.612,0.27-1.272,0.404-1.982,0.404c-0.723,0-1.322-0.135-1.8-0.404
		c-0.477-0.268-0.848-0.633-1.11-1.092c-0.265-0.459-0.42-0.985-0.469-1.579c-0.049-0.593,0-1.215,0.147-1.864
		c0.146-0.648,0.382-1.27,0.707-1.863c0.323-0.594,0.725-1.12,1.202-1.58c0.477-0.458,1.019-0.826,1.625-1.101
		c0.605-0.275,1.27-0.413,1.992-0.413c0.71,0,1.307,0.138,1.79,0.413c0.483,0.274,0.856,0.643,1.12,1.101
		c0.264,0.46,0.417,0.986,0.46,1.58C173.239,71.863,173.188,72.484,173.041,73.133z M172.27,73.124
		c0.122-0.55,0.168-1.081,0.138-1.595c-0.031-0.512-0.15-0.967-0.358-1.364s-0.508-0.718-0.899-0.962
		c-0.393-0.244-0.882-0.366-1.469-0.366c-0.601,0-1.154,0.122-1.662,0.366s-0.958,0.564-1.35,0.962
		c-0.393,0.397-0.723,0.853-0.992,1.364c-0.269,0.514-0.465,1.045-0.587,1.595c-0.136,0.55-0.187,1.081-0.156,1.595
		c0.03,0.512,0.15,0.971,0.357,1.373c0.209,0.404,0.512,0.725,0.91,0.963c0.397,0.238,0.896,0.357,1.496,0.357
		c0.588,0,1.132-0.119,1.635-0.357c0.501-0.238,0.947-0.559,1.34-0.963c0.392-0.402,0.723-0.861,0.991-1.373
		C171.933,74.205,172.134,73.674,172.27,73.124z"/>
	<path fill="#3D1D12" d="M179.668,68.837c-0.525,0-1.012,0.101-1.459,0.303c-0.447,0.203-0.843,0.476-1.185,0.819
		c-0.343,0.344-0.634,0.736-0.872,1.178s-0.413,0.908-0.523,1.398l-1.23,5.317h-0.771l1.689-7.345
		c0.073-0.331,0.098-0.594,0.073-0.79c-0.025-0.195-0.086-0.343-0.185-0.44c-0.098-0.098-0.217-0.159-0.357-0.184
		c-0.141-0.025-0.29-0.037-0.45-0.037l0.441-0.661c0.379,0,0.667,0.065,0.862,0.193c0.196,0.128,0.328,0.296,0.396,0.505
		c0.066,0.209,0.089,0.443,0.063,0.707c-0.024,0.264-0.061,0.529-0.11,0.799c0.43-0.808,0.989-1.414,1.681-1.818
		s1.454-0.605,2.287-0.605c0.06,0,0.115,0,0.165,0c0.048,0,0.103,0.006,0.165,0.019L179.668,68.837z"/>
	<path fill="#3D1D12" d="M186.556,75.355c-0.11,0.502-0.313,0.924-0.606,1.267c-0.294,0.344-0.638,0.622-1.029,0.835
		c-0.392,0.215-0.814,0.371-1.267,0.469s-0.894,0.146-1.321,0.146c-1.225,0-2.121-0.275-2.69-0.826s-0.719-1.42-0.45-2.607h0.753
		c-0.208,0.967-0.085,1.681,0.367,2.139c0.452,0.46,1.181,0.689,2.186,0.689c0.305,0,0.633-0.037,0.982-0.109
		c0.349-0.074,0.68-0.19,0.991-0.35c0.313-0.159,0.587-0.367,0.825-0.625c0.239-0.257,0.402-0.568,0.487-0.936
		c0.086-0.379,0.071-0.691-0.046-0.938c-0.116-0.244-0.297-0.439-0.541-0.587c-0.245-0.147-0.545-0.267-0.9-0.358
		s-0.723-0.186-1.102-0.284c-0.404-0.098-0.796-0.198-1.175-0.304c-0.38-0.104-0.701-0.247-0.964-0.431
		c-0.264-0.184-0.453-0.426-0.569-0.726s-0.119-0.694-0.009-1.184c0.073-0.307,0.207-0.605,0.403-0.9
		c0.195-0.294,0.459-0.557,0.79-0.79c0.33-0.231,0.722-0.419,1.175-0.56s0.967-0.211,1.542-0.211c0.527,0,0.994,0.059,1.405,0.174
		c0.41,0.117,0.743,0.295,1.001,0.533c0.256,0.238,0.431,0.551,0.522,0.936c0.093,0.387,0.077,0.842-0.045,1.369h-0.735
		c0.098-0.43,0.11-0.799,0.036-1.111c-0.072-0.313-0.21-0.566-0.412-0.762c-0.202-0.196-0.466-0.34-0.79-0.432
		c-0.325-0.092-0.688-0.138-1.092-0.138c-0.601,0-1.09,0.079-1.469,0.239c-0.38,0.158-0.684,0.342-0.91,0.55
		c-0.226,0.208-0.388,0.416-0.486,0.624c-0.098,0.209-0.159,0.355-0.184,0.441c-0.098,0.429-0.055,0.768,0.128,1.019
		c0.185,0.251,0.438,0.45,0.763,0.597c0.325,0.147,0.679,0.261,1.065,0.34c0.385,0.08,0.731,0.162,1.037,0.248
		c0.33,0.099,0.658,0.203,0.982,0.313s0.603,0.257,0.835,0.44c0.233,0.184,0.405,0.419,0.516,0.706
		C186.665,74.551,186.665,74.914,186.556,75.355z"/>
	<path fill="#3D1D12" d="M193.514,73.28l0.165-0.698h3.525l-0.147,0.698H193.514z"/>
	<path fill="#3D1D12" d="M204.787,77.871c-0.232,0-0.447-0.027-0.643-0.083c-0.196-0.056-0.357-0.156-0.486-0.304
		c-0.129-0.146-0.211-0.342-0.248-0.587s-0.012-0.556,0.073-0.937l1.249-5.453c0.073-0.343,0.098-0.608,0.073-0.799
		c-0.024-0.189-0.086-0.334-0.184-0.432c-0.099-0.098-0.218-0.159-0.358-0.184c-0.141-0.025-0.29-0.037-0.449-0.037l0.44-0.661
		c0.232,0,0.447,0.028,0.643,0.083s0.358,0.153,0.486,0.293c0.129,0.142,0.211,0.334,0.248,0.579s0.013,0.558-0.073,0.937
		l-1.248,5.453c-0.074,0.344-0.098,0.609-0.074,0.799c0.024,0.189,0.083,0.334,0.174,0.432c0.093,0.099,0.212,0.16,0.359,0.184
		c0.146,0.025,0.294,0.037,0.439,0.037L204.787,77.871z M207.102,64.98c0,0.195-0.071,0.355-0.212,0.479
		c-0.141,0.121-0.304,0.182-0.487,0.182c-0.183,0-0.346-0.061-0.485-0.182c-0.142-0.123-0.212-0.283-0.212-0.479
		s0.07-0.355,0.212-0.477c0.14-0.123,0.303-0.184,0.485-0.184c0.184,0,0.347,0.061,0.487,0.184
		C207.03,64.625,207.102,64.785,207.102,64.98z"/>
	<path fill="#3D1D12" d="M214.905,77.871c-0.308,0-0.552-0.043-0.734-0.129c-0.185-0.086-0.325-0.205-0.424-0.357
		c-0.098-0.153-0.155-0.334-0.173-0.543c-0.019-0.207-0.01-0.434,0.027-0.679c-0.466,0.612-1.029,1.083-1.689,1.413
		c-0.662,0.331-1.384,0.496-2.167,0.496c-0.686,0-1.267-0.128-1.744-0.385c-0.478-0.258-0.849-0.604-1.111-1.037
		c-0.263-0.436-0.426-0.94-0.487-1.516c-0.061-0.575-0.018-1.187,0.129-1.836c0.159-0.698,0.404-1.355,0.734-1.975
		c0.33-0.617,0.737-1.159,1.222-1.625c0.483-0.465,1.037-0.836,1.662-1.11c0.624-0.275,1.315-0.413,2.075-0.413
		c0.685,0,1.269,0.146,1.753,0.44c0.482,0.294,0.823,0.716,1.019,1.268l0.735-3.159c0.073-0.33,0.098-0.59,0.073-0.779
		c-0.025-0.191-0.085-0.334-0.184-0.432c-0.099-0.099-0.221-0.16-0.367-0.184c-0.147-0.025-0.294-0.037-0.441-0.037l0.423-0.68
		c0.258,0,0.484,0.031,0.68,0.092c0.195,0.062,0.354,0.165,0.478,0.312c0.121,0.147,0.198,0.343,0.229,0.589
		c0.031,0.244,0.003,0.55-0.082,0.918l-2.111,9.145c-0.074,0.343-0.102,0.614-0.083,0.816c0.018,0.201,0.073,0.355,0.165,0.459
		c0.092,0.104,0.208,0.172,0.35,0.202c0.14,0.03,0.296,0.046,0.468,0.046L214.905,77.871z M214.647,71.365
		c0.062-0.807-0.141-1.43-0.605-1.869c-0.466-0.439-1.096-0.659-1.892-0.659c-0.661,0-1.258,0.118-1.791,0.356
		c-0.532,0.238-1,0.563-1.403,0.972c-0.405,0.409-0.744,0.882-1.02,1.42s-0.486,1.106-0.635,1.704
		c-0.134,0.55-0.18,1.074-0.137,1.576c0.043,0.501,0.175,0.94,0.396,1.318c0.219,0.379,0.528,0.679,0.927,0.898
		c0.397,0.22,0.896,0.33,1.496,0.33c0.429,0,0.854-0.067,1.276-0.201c0.422-0.135,0.813-0.324,1.176-0.568
		c0.36-0.244,0.673-0.543,0.936-0.898c0.264-0.354,0.443-0.751,0.542-1.191L214.647,71.365z"/>
	<path fill="#3D1D12" d="M217.659,77.871c-0.232,0-0.447-0.027-0.644-0.083c-0.195-0.056-0.357-0.156-0.485-0.304
		c-0.129-0.146-0.211-0.342-0.248-0.587s-0.013-0.556,0.073-0.937l1.248-5.453c0.074-0.343,0.099-0.608,0.074-0.799
		c-0.024-0.189-0.086-0.334-0.185-0.432c-0.098-0.098-0.217-0.159-0.357-0.184c-0.141-0.025-0.291-0.037-0.449-0.037l0.439-0.661
		c0.233,0,0.447,0.028,0.644,0.083s0.358,0.153,0.486,0.293c0.129,0.142,0.212,0.334,0.248,0.579
		c0.037,0.245,0.012,0.558-0.074,0.937l-1.248,5.453c-0.073,0.344-0.099,0.609-0.073,0.799c0.024,0.189,0.083,0.334,0.175,0.432
		c0.092,0.099,0.21,0.16,0.358,0.184c0.146,0.025,0.293,0.037,0.439,0.037L217.659,77.871z M219.973,64.98
		c0,0.195-0.07,0.355-0.211,0.479c-0.141,0.121-0.303,0.182-0.487,0.182c-0.183,0-0.345-0.061-0.486-0.182
		c-0.141-0.123-0.211-0.283-0.211-0.479s0.07-0.355,0.211-0.477c0.142-0.123,0.304-0.184,0.486-0.184
		c0.185,0,0.347,0.061,0.487,0.184C219.902,64.625,219.973,64.785,219.973,64.98z"/>
	<path fill="#3D1D12" d="M228.181,73.133c-0.147,0.649-0.383,1.271-0.707,1.864c-0.325,0.594-0.723,1.12-1.193,1.579
		s-1.014,0.824-1.625,1.092c-0.612,0.27-1.272,0.404-1.983,0.404c-0.722,0-1.322-0.135-1.8-0.404
		c-0.478-0.268-0.847-0.633-1.11-1.092s-0.42-0.985-0.469-1.579c-0.05-0.593,0-1.215,0.146-1.864
		c0.147-0.648,0.383-1.27,0.708-1.863c0.323-0.594,0.725-1.12,1.202-1.58c0.478-0.458,1.02-0.826,1.626-1.101
		c0.604-0.275,1.269-0.413,1.992-0.413c0.709,0,1.307,0.138,1.79,0.413c0.483,0.274,0.856,0.643,1.119,1.101
		c0.264,0.46,0.417,0.986,0.46,1.58C228.379,71.863,228.327,72.484,228.181,73.133z M227.409,73.124
		c0.122-0.55,0.169-1.081,0.138-1.595c-0.03-0.512-0.15-0.967-0.358-1.364s-0.508-0.718-0.899-0.962s-0.882-0.366-1.469-0.366
		c-0.6,0-1.154,0.122-1.662,0.366s-0.957,0.564-1.35,0.962c-0.392,0.397-0.722,0.853-0.992,1.364
		c-0.268,0.514-0.465,1.045-0.587,1.595c-0.135,0.55-0.187,1.081-0.156,1.595c0.03,0.512,0.15,0.971,0.358,1.373
		c0.208,0.404,0.511,0.725,0.909,0.963c0.397,0.238,0.896,0.357,1.496,0.357c0.588,0,1.133-0.119,1.635-0.357
		c0.501-0.238,0.948-0.559,1.34-0.963c0.392-0.402,0.723-0.861,0.992-1.373C227.073,74.205,227.274,73.674,227.409,73.124z"/>
	<path fill="#3D1D12" d="M243.972,77.871c-0.625,0-1.031-0.166-1.222-0.498c-0.189-0.33-0.217-0.803-0.082-1.416l0.937-4.121
		c0.208-0.883,0.143-1.604-0.193-2.162c-0.337-0.559-0.964-0.837-1.882-0.837c-0.526,0-1.013,0.101-1.46,0.303
		c-0.447,0.203-0.842,0.476-1.185,0.819s-0.633,0.736-0.871,1.178c-0.239,0.441-0.414,0.908-0.524,1.398l-1.211,5.317h-0.79
		l1.414-6.072c0.207-0.884,0.137-1.595-0.211-2.134c-0.35-0.539-0.977-0.81-1.883-0.81c-0.526,0-1.013,0.101-1.46,0.303
		c-0.447,0.203-0.842,0.476-1.184,0.819c-0.344,0.344-0.634,0.736-0.872,1.178c-0.239,0.441-0.414,0.908-0.524,1.398l-1.229,5.317
		h-0.771l1.688-7.345c0.11-0.477,0.11-0.838,0-1.084c-0.11-0.244-0.416-0.367-0.918-0.367l0.423-0.661
		c0.379,0,0.666,0.065,0.862,0.193c0.195,0.128,0.327,0.3,0.395,0.514s0.089,0.453,0.065,0.716
		c-0.025,0.264-0.056,0.523-0.093,0.781c0.196-0.379,0.438-0.723,0.725-1.029c0.289-0.305,0.606-0.56,0.955-0.762
		c0.35-0.201,0.719-0.357,1.111-0.467c0.392-0.111,0.783-0.166,1.175-0.166c0.845,0,1.516,0.223,2.011,0.67
		c0.496,0.447,0.713,1.104,0.652,1.974c0.428-0.882,0.991-1.542,1.688-1.982c0.698-0.441,1.488-0.661,2.37-0.661
		c1.039,0,1.789,0.303,2.249,0.909c0.459,0.604,0.565,1.429,0.321,2.47l-0.955,4.186c-0.11,0.478-0.113,0.842-0.01,1.093
		c0.104,0.251,0.407,0.371,0.909,0.358L243.972,77.871z"/>
	<path fill="#3D1D12" d="M254.089,77.871c-0.294,0-0.535-0.043-0.726-0.129c-0.189-0.086-0.333-0.205-0.432-0.357
		c-0.098-0.153-0.152-0.334-0.164-0.543c-0.013-0.207,0-0.434,0.036-0.679c-0.478,0.612-1.046,1.083-1.707,1.413
		c-0.661,0.331-1.385,0.496-2.168,0.496c-0.686,0-1.267-0.128-1.744-0.385c-0.478-0.258-0.848-0.604-1.11-1.037
		c-0.264-0.436-0.426-0.94-0.487-1.516c-0.061-0.575-0.018-1.187,0.129-1.836c0.159-0.698,0.404-1.355,0.734-1.975
		c0.33-0.617,0.737-1.159,1.222-1.625c0.482-0.465,1.037-0.836,1.661-1.11c0.625-0.275,1.316-0.413,2.075-0.413
		c0.686,0,1.27,0.146,1.754,0.44c0.482,0.294,0.822,0.716,1.019,1.268l0.331-1.488h0.789l-1.707,7.382
		c-0.074,0.33-0.099,0.591-0.074,0.781c0.024,0.189,0.086,0.33,0.185,0.422c0.097,0.092,0.22,0.15,0.367,0.174
		c0.146,0.025,0.293,0.037,0.44,0.037L254.089,77.871z M253.832,71.365c0.061-0.807-0.141-1.43-0.605-1.869
		c-0.466-0.439-1.096-0.659-1.892-0.659c-0.661,0-1.259,0.118-1.791,0.356s-1,0.563-1.405,0.972
		c-0.403,0.409-0.743,0.882-1.018,1.42c-0.275,0.538-0.486,1.106-0.634,1.704c-0.135,0.55-0.182,1.074-0.138,1.576
		c0.043,0.501,0.175,0.94,0.395,1.318c0.221,0.379,0.529,0.679,0.928,0.898c0.396,0.22,0.896,0.33,1.496,0.33
		c0.429,0,0.854-0.067,1.275-0.201c0.423-0.135,0.814-0.324,1.176-0.568s0.674-0.543,0.937-0.898
		c0.264-0.354,0.443-0.751,0.542-1.191L253.832,71.365z"/>
	<path fill="#3D1D12" d="M262.536,75.355c-0.11,0.502-0.313,0.924-0.606,1.267c-0.294,0.344-0.638,0.622-1.028,0.835
		c-0.392,0.215-0.814,0.371-1.268,0.469c-0.452,0.098-0.894,0.146-1.321,0.146c-1.225,0-2.121-0.275-2.69-0.826
		s-0.719-1.42-0.45-2.607h0.754c-0.209,0.967-0.086,1.681,0.367,2.139c0.452,0.46,1.18,0.689,2.185,0.689
		c0.306,0,0.634-0.037,0.982-0.109c0.349-0.074,0.679-0.19,0.991-0.35s0.587-0.367,0.826-0.625c0.238-0.257,0.401-0.568,0.487-0.936
		c0.085-0.379,0.07-0.691-0.046-0.938c-0.117-0.244-0.298-0.439-0.543-0.587c-0.244-0.147-0.544-0.267-0.898-0.358
		c-0.355-0.092-0.723-0.186-1.103-0.284c-0.403-0.098-0.795-0.198-1.175-0.304c-0.379-0.104-0.7-0.247-0.964-0.431
		s-0.453-0.426-0.569-0.726c-0.117-0.3-0.119-0.694-0.009-1.184c0.073-0.307,0.208-0.605,0.403-0.9
		c0.195-0.294,0.459-0.557,0.79-0.79c0.33-0.231,0.722-0.419,1.175-0.56s0.967-0.211,1.543-0.211c0.526,0,0.994,0.059,1.404,0.174
		c0.41,0.117,0.743,0.295,1.001,0.533c0.257,0.238,0.431,0.551,0.522,0.936c0.093,0.387,0.077,0.842-0.045,1.369h-0.735
		c0.098-0.43,0.11-0.799,0.037-1.111s-0.211-0.566-0.413-0.762c-0.202-0.196-0.465-0.34-0.79-0.432
		c-0.324-0.092-0.688-0.138-1.092-0.138c-0.6,0-1.089,0.079-1.469,0.239c-0.38,0.158-0.683,0.342-0.909,0.55
		c-0.228,0.208-0.389,0.416-0.486,0.624c-0.099,0.209-0.16,0.355-0.185,0.441c-0.098,0.429-0.055,0.768,0.129,1.019
		s0.438,0.45,0.763,0.597c0.324,0.147,0.679,0.261,1.064,0.34c0.385,0.08,0.731,0.162,1.038,0.248
		c0.33,0.099,0.657,0.203,0.981,0.313s0.603,0.257,0.835,0.44c0.233,0.184,0.405,0.419,0.516,0.706
		C262.646,74.551,262.646,74.914,262.536,75.355z"/>
	<path fill="#3D1D12" d="M262.48,80l-0.515-0.33l3.14-3.893l0.515,0.349L262.48,80z"/>
	<path fill="#3D1D12" d="M280.016,74.217c-0.146,0.637-0.392,1.184-0.735,1.644c-0.342,0.459-0.749,0.835-1.221,1.129
		c-0.471,0.294-0.985,0.511-1.542,0.651c-0.558,0.142-1.124,0.212-1.698,0.212h-3.379l3.048-13.222h3.544
		c0.515,0,0.982,0.068,1.404,0.203c0.423,0.135,0.774,0.34,1.057,0.615c0.281,0.275,0.471,0.618,0.569,1.027
		c0.098,0.411,0.084,0.891-0.037,1.441c-0.086,0.393-0.232,0.76-0.44,1.103c-0.209,0.343-0.459,0.646-0.754,0.908
		c-0.293,0.264-0.623,0.483-0.99,0.661c-0.368,0.178-0.747,0.285-1.139,0.321c0.453,0.024,0.848,0.126,1.185,0.304
		c0.336,0.177,0.605,0.412,0.808,0.707c0.202,0.293,0.333,0.637,0.395,1.027C280.15,73.342,280.126,73.764,280.016,74.217z
		 M279.188,74.171c0.11-0.501,0.117-0.934,0.02-1.3c-0.099-0.365-0.276-0.668-0.532-0.906c-0.258-0.238-0.582-0.412-0.974-0.521
		c-0.393-0.109-0.821-0.165-1.285-0.165h-2.645l-1.341,5.84h2.57c0.466,0,0.925-0.058,1.378-0.175
		c0.452-0.115,0.865-0.293,1.239-0.53c0.373-0.237,0.698-0.542,0.973-0.915C278.867,75.125,279.067,74.684,279.188,74.171z
		 M280.199,68.038c0.109-0.452,0.122-0.845,0.036-1.181c-0.085-0.335-0.241-0.613-0.468-0.832c-0.227-0.22-0.515-0.385-0.863-0.494
		s-0.737-0.164-1.166-0.164h-2.589l-1.23,5.287h2.59c0.403,0,0.805-0.055,1.202-0.164s0.765-0.275,1.102-0.494
		c0.337-0.221,0.627-0.491,0.873-0.814C279.929,68.858,280.101,68.477,280.199,68.038z"/>
	<path fill="#3D1D12" d="M286.883,68.837c-0.526,0-1.013,0.101-1.459,0.303c-0.447,0.203-0.843,0.476-1.186,0.819
		c-0.342,0.344-0.634,0.736-0.872,1.178s-0.413,0.908-0.522,1.398l-1.231,5.317h-0.771l1.689-7.345
		c0.073-0.331,0.098-0.594,0.073-0.79c-0.025-0.195-0.085-0.343-0.184-0.44c-0.098-0.098-0.218-0.159-0.358-0.184
		c-0.141-0.025-0.29-0.037-0.45-0.037l0.441-0.661c0.379,0,0.667,0.065,0.862,0.193c0.196,0.128,0.328,0.296,0.395,0.505
		c0.067,0.209,0.09,0.443,0.065,0.707c-0.025,0.264-0.062,0.529-0.11,0.799c0.429-0.808,0.988-1.414,1.681-1.818
		c0.69-0.404,1.453-0.605,2.286-0.605c0.061,0,0.116,0,0.164,0c0.05,0,0.104,0.006,0.166,0.019L286.883,68.837z"/>
	<path fill="#3D1D12" d="M295.439,77.871c-0.294,0-0.536-0.043-0.725-0.129c-0.191-0.086-0.335-0.205-0.433-0.357
		c-0.099-0.153-0.153-0.334-0.165-0.543c-0.013-0.207,0-0.434,0.037-0.679c-0.478,0.612-1.047,1.083-1.708,1.413
		c-0.661,0.331-1.384,0.496-2.166,0.496c-0.687,0-1.268-0.128-1.745-0.385c-0.478-0.258-0.848-0.604-1.11-1.037
		c-0.264-0.436-0.427-0.94-0.486-1.516c-0.063-0.575-0.02-1.187,0.128-1.836c0.158-0.698,0.404-1.355,0.734-1.975
		c0.331-0.617,0.737-1.159,1.221-1.625c0.483-0.465,1.037-0.836,1.662-1.11c0.624-0.275,1.315-0.413,2.075-0.413
		c0.685,0,1.271,0.146,1.753,0.44c0.484,0.294,0.823,0.716,1.02,1.268l0.331-1.488h0.789l-1.708,7.382
		c-0.072,0.33-0.098,0.591-0.072,0.781c0.023,0.189,0.084,0.33,0.183,0.422c0.098,0.092,0.221,0.15,0.367,0.174
		c0.147,0.025,0.294,0.037,0.441,0.037L295.439,77.871z M295.182,71.365c0.062-0.807-0.141-1.43-0.605-1.869
		s-1.095-0.659-1.891-0.659c-0.662,0-1.259,0.118-1.791,0.356s-1.001,0.563-1.404,0.972s-0.743,0.882-1.019,1.42
		c-0.276,0.538-0.487,1.106-0.634,1.704c-0.136,0.55-0.181,1.074-0.139,1.576c0.043,0.501,0.175,0.94,0.396,1.318
		c0.221,0.379,0.529,0.679,0.927,0.898c0.398,0.22,0.896,0.33,1.497,0.33c0.428,0,0.854-0.067,1.276-0.201
		c0.423-0.135,0.813-0.324,1.175-0.568c0.36-0.244,0.673-0.543,0.937-0.898c0.264-0.354,0.444-0.751,0.542-1.191L295.182,71.365z"/>
	<path fill="#3D1D12" d="M303.886,75.355c-0.11,0.502-0.313,0.924-0.606,1.267c-0.294,0.344-0.636,0.622-1.027,0.835
		c-0.393,0.215-0.814,0.371-1.268,0.469s-0.893,0.146-1.321,0.146c-1.225,0-2.122-0.275-2.69-0.826
		c-0.569-0.551-0.72-1.42-0.449-2.607h0.752c-0.208,0.967-0.086,1.681,0.367,2.139c0.453,0.46,1.182,0.689,2.185,0.689
		c0.307,0,0.634-0.037,0.982-0.109c0.349-0.074,0.68-0.19,0.992-0.35c0.312-0.159,0.588-0.367,0.826-0.625
		c0.239-0.257,0.4-0.568,0.486-0.936c0.086-0.379,0.07-0.691-0.046-0.938c-0.116-0.244-0.297-0.439-0.541-0.587
		c-0.246-0.147-0.545-0.267-0.9-0.358s-0.722-0.186-1.102-0.284c-0.404-0.098-0.796-0.198-1.176-0.304
		c-0.379-0.104-0.7-0.247-0.963-0.432c-0.264-0.183-0.453-0.425-0.569-0.725s-0.119-0.694-0.01-1.184
		c0.073-0.307,0.208-0.605,0.404-0.9c0.196-0.294,0.459-0.557,0.79-0.79c0.33-0.231,0.722-0.419,1.174-0.56
		c0.453-0.141,0.969-0.211,1.544-0.211c0.525,0,0.994,0.059,1.403,0.174c0.41,0.117,0.744,0.295,1.001,0.533
		c0.258,0.238,0.432,0.551,0.524,0.936c0.091,0.387,0.075,0.842-0.047,1.369h-0.734c0.098-0.43,0.111-0.799,0.037-1.111
		c-0.073-0.313-0.211-0.566-0.413-0.762c-0.202-0.196-0.466-0.34-0.789-0.432c-0.325-0.092-0.688-0.138-1.094-0.138
		c-0.6,0-1.089,0.079-1.469,0.239c-0.38,0.158-0.682,0.342-0.908,0.55s-0.389,0.416-0.487,0.624
		c-0.098,0.209-0.159,0.355-0.183,0.441c-0.099,0.429-0.056,0.768,0.127,1.019c0.184,0.251,0.438,0.45,0.763,0.597
		c0.324,0.147,0.68,0.261,1.065,0.34c0.385,0.08,0.73,0.162,1.037,0.248c0.331,0.099,0.657,0.203,0.982,0.313
		c0.324,0.109,0.603,0.257,0.836,0.44c0.231,0.184,0.403,0.419,0.514,0.706C303.995,74.551,303.995,74.914,303.886,75.355z"/>
	<path fill="#3D1D12" d="M306.475,77.871c-0.232,0-0.447-0.027-0.643-0.083c-0.196-0.056-0.358-0.156-0.486-0.304
		c-0.129-0.146-0.212-0.342-0.248-0.587c-0.037-0.245-0.012-0.556,0.073-0.937l1.249-5.453c0.072-0.343,0.098-0.608,0.072-0.799
		c-0.024-0.189-0.086-0.334-0.184-0.432s-0.217-0.159-0.357-0.184c-0.141-0.025-0.291-0.037-0.45-0.037l0.441-0.661
		c0.232,0,0.446,0.028,0.643,0.083c0.195,0.055,0.357,0.153,0.486,0.293c0.129,0.142,0.211,0.334,0.248,0.579
		c0.036,0.245,0.012,0.558-0.073,0.937l-1.249,5.453c-0.073,0.344-0.098,0.609-0.073,0.799s0.082,0.334,0.174,0.432
		c0.093,0.099,0.211,0.16,0.358,0.184c0.147,0.025,0.294,0.037,0.441,0.037L306.475,77.871z M308.788,64.98
		c0,0.195-0.07,0.355-0.211,0.479c-0.142,0.121-0.304,0.182-0.486,0.182c-0.184,0-0.347-0.061-0.487-0.182
		c-0.141-0.123-0.211-0.283-0.211-0.479s0.07-0.355,0.211-0.477c0.141-0.123,0.304-0.184,0.487-0.184
		c0.183,0,0.345,0.061,0.486,0.184C308.718,64.625,308.788,64.785,308.788,64.98z"/>
	<path fill="#3D1D12" d="M309.229,77.871c-0.232,0-0.447-0.027-0.643-0.083c-0.196-0.056-0.357-0.156-0.486-0.304
		c-0.129-0.146-0.211-0.342-0.247-0.587c-0.038-0.245-0.014-0.556,0.072-0.937l2.131-9.218c0.072-0.343,0.098-0.608,0.072-0.798
		c-0.024-0.191-0.086-0.334-0.184-0.432c-0.099-0.099-0.22-0.16-0.366-0.184c-0.147-0.025-0.295-0.037-0.441-0.037l0.423-0.68
		c0.231,0,0.449,0.027,0.651,0.082c0.202,0.056,0.367,0.156,0.496,0.304s0.211,0.343,0.247,0.587
		c0.038,0.246,0.014,0.558-0.072,0.938l-2.131,9.217c-0.072,0.344-0.099,0.609-0.072,0.799c0.023,0.189,0.082,0.334,0.174,0.432
		c0.092,0.099,0.211,0.16,0.358,0.184c0.146,0.025,0.293,0.037,0.439,0.037L309.229,77.871z"/>
</g>
<g>
	<path fill="#3D1D12" d="M118.814,47.896c0.804,3.063,3.717,4.821,7.232,4.821c4.269,0,7.03-2.159,7.03-6.227
		c0-2.26-1.155-4.018-3.164-5.675c-3.917-3.265-9.09-5.575-9.09-11.35c0-7.935,7.081-13.158,14.965-13.158
		c4.119,0,7.734,0.904,7.734,3.917c0,1.708-1.758,3.616-3.314,4.318c-1.607-2.561-3.365-4.118-6.729-4.118
		c-3.566,0-5.926,1.708-5.926,5.122c0,3.064,1.708,4.219,8.487,9.442c2.561,2.31,4.168,4.771,4.168,8.336
		c0,8.186-8.588,13.609-16.372,13.609c-4.269,0-9.994-1.758-9.994-5.373c0-2.01,1.958-4.57,4.872-5.424
		C118.614,46.74,118.664,47.293,118.814,47.896z"/>
	<path fill="#3D1D12" d="M169.535,31.223c0,1.054-0.251,2.31-0.652,3.767c-1.355,4.921-2.963,9.843-2.963,13.409
		c0,1.004,0.302,1.707,0.553,2.159c1.406-0.302,4.921-4.319,5.474-4.319c0.2,0,0.301,0.15,0.301,0.452
		c0,3.616-5.322,9.14-8.938,9.14c-2.813,0-4.47-1.758-4.47-5.373c0-1.355,0.201-2.512,0.452-3.867
		c-3.867,6.328-7.634,9.692-11.701,9.692c-3.716,0-4.37-2.61-4.37-5.173c0-3.916,3.616-15.216,3.616-18.982
		c0-0.854-0.101-1.808-0.502-2.561c1.808-0.703,3.615-1.055,4.921-1.055c2.311,0,2.913,1.255,2.913,2.762
		c0,1.004-0.301,2.16-0.502,3.063c-1.607,7.031-3.265,12.806-3.265,15.267c0,0.652,0.201,1.306,0.954,1.306
		c1.406,0,4.52-3.466,7.282-8.437c2.561-4.67,3.867-8.839,3.867-11.551c0-0.552-0.1-1.205-0.351-1.707
		c1.305-0.452,3.063-0.703,4.318-0.703C168.079,28.612,169.535,29.164,169.535,31.223z"/>
	<path fill="#3D1D12" d="M199.214,35.441c0,9.743-7.583,20.49-16.22,20.49c-1.608,0-3.265-0.302-4.722-0.955
		c-0.553,2.16-1.104,4.822-1.104,6.98c0,0.804,0.251,1.657,0.502,2.512c-1.808,0.904-3.516,1.256-4.721,1.256
		c-2.06,0-3.014-1.005-3.014-2.813c0-0.702,0.101-1.557,0.302-2.46c0.352-1.406,4.47-18.983,5.072-21.595
		c0.653-2.813,1.055-4.972,1.055-7.131c0-0.804-0.15-1.607-0.502-2.36c2.009-0.904,3.716-1.306,5.172-1.306
		c1.858,0,2.862,0.753,2.862,2.31c0,0.904-0.651,3.867-1.706,7.885c2.912-4.671,6.88-9.692,11.7-9.692
		c0.401,0,0.804,0.05,1.256,0.101C198.059,29.063,199.214,32.428,199.214,35.441z M191.832,36.948c0-1.958-0.452-3.064-1.557-3.064
		c-2.611,0-8.89,10.195-10.848,15.719c0.302,1.406,2.359,2.41,4.068,2.41c4.269,0,7.984-7.733,8.336-14.463
		C191.832,37.35,191.832,37.149,191.832,36.948z"/>
	<path fill="#3D1D12" d="M221.109,28.461c1.557,0,2.108,0.954,2.108,2.411c0,2.31-1.456,4.871-3.465,7.131
		c-0.502-0.803-1.155-1.255-1.908-1.255c-4.018,0-7.132,7.734-10.646,16.522c-0.703,1.808-1.607,2.762-4.118,2.762
		c-1.004,0-2.26-0.15-3.918-0.452c3.867-9.893,5.626-18.832,5.626-22.348c0-1.306-0.151-2.46-0.553-3.314
		c2.209-0.954,3.967-1.406,5.272-1.406c1.557,0,2.662,0.954,2.662,2.561c0,2.009-0.754,4.922-1.607,8.286
		c3.768-6.629,7.282-10.847,10.295-10.897C220.958,28.461,221.009,28.461,221.109,28.461z"/>
	<path fill="#3D1D12" d="M243.104,47.896c0.703,1.256,0.603,2.813-0.301,3.968c-0.854,1.055-2.109,2.01-3.768,2.712
		c-2.511,1.155-5.122,1.707-7.935,1.707c-5.875,0-9.24-2.562-9.491-7.733c-0.251-5.172,1.558-10.245,5.022-14.011
		c3.364-4.018,7.683-6.177,12.152-6.177c4.219,0,6.228,1.808,6.178,5.223c0,3.415-4.42,7.785-11.199,10.195
		c-1.607,0.553-4.871,2.009-4.922,3.314c-0.05,1.206,0.101,2.261,0.553,2.914c1.104,1.606,2.913,2.561,4.821,2.31
		C237.781,51.964,240.493,50.407,243.104,47.896z M229.345,43.678c0.854-1.858,2.36-2.511,4.218-3.516
		c3.214-1.758,4.118-3.415,4.62-5.172c0.502-1.758-0.1-3.265-1.908-3.265c-2.712,0-4.972,3.465-6.428,9.693
		C229.847,41.418,229.646,42.271,229.345,43.678z"/>
	<path fill="#3D1D12" d="M277.906,44.883c1.256-5.625,1.908-8.839,1.908-9.391c0-0.653-0.251-0.854-0.753-0.854
		c-2.26,0-10.044,12.604-11.249,19.133c0,0.352,0.05,0.703,0.2,1.155c-0.502,0.401-2.26,1.054-3.515,1.054
		c-1.457,0-2.562-0.502-3.516-1.506c2.31-9.743,4.219-17.175,4.219-18.983c0-0.703-0.302-0.904-0.804-0.904
		c-1.356,0.05-3.968,3.766-6.479,7.483c-1.657,2.46-2.712,5.222-5.173,11.148c-0.754,1.809-1.557,2.762-4.118,2.762
		c-1.005,0-2.26-0.15-3.917-0.451c3.967-9.793,5.674-19.033,5.674-22.348c0-1.205-0.2-2.36-0.603-3.314
		c2.21-0.954,3.969-1.406,5.274-1.406c1.506,0,2.711,0.904,2.711,2.46c0,1.909-0.753,4.821-1.657,8.337
		c4.621-7.182,9.492-10.948,12.605-10.948c1.908,0,3.465,1.054,3.465,3.264c0,2.561-0.401,5.374-1.154,7.583
		c4.619-7.382,9.542-10.847,12.454-10.847c2.009,0,3.415,1.657,3.415,3.615c0,5.524-3.164,13.409-3.164,16.773
		c0,1.005,0.251,1.708,0.502,2.159c1.406-0.301,4.922-4.318,5.474-4.318c0.201,0,0.302,0.15,0.302,0.452
		c0,3.615-5.323,9.141-8.938,9.141c-2.713,0-4.37-1.407-4.37-4.521C276.751,49.553,277.454,47.092,277.906,44.883z"/>
	<path fill="#3D1D12" d="M311.15,47.896c0.703,1.256,0.604,2.813-0.301,3.968c-0.854,1.055-2.11,2.01-3.768,2.712
		c-2.511,1.155-5.122,1.707-7.934,1.707c-5.877,0-9.241-2.562-9.492-7.733c-0.251-5.172,1.557-10.245,5.021-14.011
		c3.365-4.018,7.685-6.177,12.153-6.177c4.219,0,6.228,1.808,6.178,5.223c0,3.415-4.42,7.785-11.199,10.195
		c-1.606,0.553-4.871,2.009-4.922,3.314c-0.05,1.206,0.101,2.261,0.553,2.914c1.105,1.606,2.913,2.561,4.821,2.31
		C305.827,51.964,308.539,50.407,311.15,47.896z M297.39,43.678c0.854-1.858,2.361-2.511,4.219-3.516
		c3.214-1.758,4.118-3.415,4.62-5.172c0.502-1.758-0.101-3.265-1.908-3.265c-2.712,0-4.972,3.465-6.429,9.693
		C297.892,41.418,297.691,42.271,297.39,43.678z"/>
</g>
<g>
	<path fill="#3D1D12" d="M92.346,74.471l-0.564-10.049l-1.137,0.443c-3.379,1.318-6.72,1.965-10.209,1.965
		c-5.198,0-9.651-1.436-13.569-2.705c-3.36-1.084-6.219-1.996-8.651-1.699c-3.565,0.432-5.339,3.181-6.229,5.951
		c-0.885-2.771-2.66-5.52-6.228-5.951c-2.432-0.295-5.294,0.617-8.651,1.702c-3.922,1.267-8.369,2.7-13.569,2.702
		c-3.487,0-6.826-0.646-10.209-1.965l-1.137-0.443l-0.564,10.049H7.662v3.956h88.509v-3.956H92.346z M13.455,73.582l0.373-6.646
		c3.207,1.119,6.395,1.67,9.713,1.67c5.482,0,10.267-1.55,14.112-2.787c3.152-1.02,5.8-1.889,7.895-1.63
		c4.705,0.567,5.431,7.032,5.537,9.396H13.455V73.582z M52.892,73.582c0.102-2.365,0.816-8.826,5.54-9.396
		c2.094-0.257,4.743,0.61,7.892,1.629c3.845,1.238,8.632,2.788,14.112,2.788c3.319,0,6.507-0.548,9.716-1.671l0.371,6.646h-37.63
		V73.582z"/>
</g>
</svg>
