<?xml version="1.0" encoding="utf-8"?>
<!-- Generator: Adobe Illustrator 20.1.0, SVG Export Plug-In . SVG Version: 6.00 Build 0)  -->
<svg version="1.1" id="Camada_1" xmlns="http://www.w3.org/2000/svg" xmlns:xlink="http://www.w3.org/1999/xlink" x="0px" y="0px"
	 viewBox="0 0 15 7.8" style="enable-background:new 0 0 15 7.8;" xml:space="preserve">
<style type="text/css">
	.st0{fill:#FFFFFF;}
</style>
<path class="st0" d="M12.5,5.5v1.3h1.3V5.5H12.5z M11,4.8L8.2,1.3H6.9v2H3.6v0h0v1.1h1.7V5C4.9,5.3,4.5,5.5,4.1,5.5
	c-0.9,0-1.6-0.7-1.6-1.6c0-0.9,0.7-1.6,1.6-1.6c0.5,0,0.9,0.2,1.3,0.5l1-0.6C5.8,1.4,5,1,4.1,1C2.5,1,1.2,2.3,1.2,3.9
	c0,1.6,1.3,2.9,2.9,2.9c1,0,1.8-0.5,2.3-1.2h0V4.4h0.5v2.4h1.3V3.5L11,6.8V5.5h1.3V1.3H11V4.8z"/>
</svg>
