<?xml version="1.0" encoding="utf-8"?>
<!-- Generator: Adobe Illustrator 16.0.0, SVG Export Plug-In . SVG Version: 6.00 Build 0)  -->
<!DOCTYPE svg PUBLIC "-//W3C//DTD SVG 1.1//EN" "http://www.w3.org/Graphics/SVG/1.1/DTD/svg11.dtd">
<svg version="1.1" id="Layer_1" xmlns="http://www.w3.org/2000/svg" xmlns:xlink="http://www.w3.org/1999/xlink" x="0px" y="0px"
	 width="107px" height="90px" viewBox="0 0 107 90" enable-background="new 0 0 107 90" xml:space="preserve">
<g>
	<path fill="#FFFFFF" d="M83.175,69.052c-11.926-2.188-22.183-10.922-28.493,0.577c-3.285-3.646-2.188-9.562-20.123-2.624
		c-2.211,0.492-3.663,0.416-6.062,1.313c-0.189-0.49-1.98,1.048-2.276,0.211c-4.097-11.592-7.479-21.251-11.645-32.818
		c-0.298-0.83-1.178-1.708-2-2.041c-2.129-0.861-3.154-2.608-2.332-4.548c0.652-1.537,2.775-2.224,4.356-1.409
		c1.785,0.92,2.192,2.755,1.049,4.748c-0.189,0.331-0.404,0.646-0.717,1.142c5.271,6.231,10.739,12.229,18.1,16.031
		c5.419,2.797,8.715,1.725,11.815-3.592c4.074-6.988,5.766-14.802,7.571-22.561c0.578-2.483,0.937-5.017,1.479-7.509
		c0.352-1.616,0.573-2.956-0.941-4.333c-1.145-1.042-0.725-2.664,0.551-3.653c1.37-1.062,2.815-0.884,3.917,0.44
		c1.035,1.243,1.092,2.935-0.275,3.667c-1.906,1.02-1.418,2.298-1.059,3.687c2.183,8.447,4.225,16.937,6.692,25.301
		c0.785,2.662,2.55,5.106,4.183,7.426c1.742,2.471,4.302,3.043,7.235,2.18c5.004-1.469,8.854-4.712,12.513-8.173
		c2.97-2.809,5.692-5.881,8.336-8.639c-0.546-1.316-1.169-2.259-1.302-3.267c-0.215-1.641,0.561-2.941,2.293-3.211
		c1.784-0.278,3.313,0.345,3.784,2.248c0.412,1.663-0.044,3.343-1.871,3.689c-1.806,0.343-2.278,1.41-2.786,2.867
		c-3.975,11.39-7.662,21.482-11.686,32.855C83.829,67.78,83.485,68.284,83.175,69.052 M55.063,56.313c-0.343,0-0.686,0-1.029-0.002
		c-0.559,0.928-1.608,1.896-1.532,2.768c0.067,0.77,1.305,1.881,2.172,2.037c1.417,0.256,2.425-0.891,2.151-2.301
		C56.647,57.903,55.678,57.142,55.063,56.313"/>
	<path fill="#FFFFFF" d="M41.255,47.996c-1.604,1.971-2.645,2.313-5.465,1.303c-1.081-0.389-2.087-0.984-3.132-1.475
		c-1.371-0.641-1.727-1.424-1.336-3.095c0.787-3.366,1.16-6.839,1.546-10.285c0.205-1.826,0.575-3.673-1.495-5.095
		c-1.164-0.799-0.849-2.441,0.273-3.469c1.196-1.096,2.779-1.221,3.669,0.065c0.587,0.848,0.775,2.997,0.249,3.403
		c-1.729,1.332-1.176,2.661-0.586,4.06C36.975,38.149,39.039,42.862,41.255,47.996"/>
	<path fill="#FFFFFF" d="M71.7,49.957c-3.062-0.322-4.792-3.404-3.603-5.981c1.837-3.981,3.427-8.079,4.994-12.176
		c0.227-0.593-0.06-1.593-0.452-2.171c-1.027-1.514-1.131-2.869,0.303-4.094c1.156-0.988,3.182-0.719,3.874,0.569
		c0.837,1.555,0.577,2.908-1.009,4.004c-0.543,0.375-1.104,1.309-1.024,1.905c0.622,4.718,1.435,9.411,2.075,14.126
		c0.086,0.629-0.275,1.68-0.759,1.955C74.725,48.877,73.179,49.357,71.7,49.957"/>
</g>
<g>
	<path fill="#FFFFFF" d="M95.394,74.924l-0.563-10.05l-1.138,0.443c-3.379,1.318-6.72,1.965-10.209,1.965
		c-5.197,0-9.65-1.436-13.568-2.705c-3.36-1.084-6.22-1.996-8.651-1.699c-3.564,0.432-5.34,3.182-6.229,5.951
		c-0.885-2.77-2.66-5.52-6.228-5.951c-2.432-0.295-5.294,0.617-8.651,1.703c-3.922,1.266-8.369,2.699-13.569,2.701
		c-3.487,0-6.826-0.646-10.209-1.965l-1.137-0.443l-0.564,10.05H10.71v3.955h88.509v-3.955H95.394z M16.502,74.035l0.373-6.647
		c3.207,1.119,6.395,1.67,9.713,1.67c5.482,0,10.267-1.549,14.112-2.787c3.152-1.02,5.8-1.889,7.895-1.629
		c4.705,0.566,5.431,7.032,5.537,9.396H16.502V74.035z M55.939,74.035c0.103-2.365,0.816-8.827,5.541-9.397
		c2.094-0.256,4.742,0.611,7.892,1.629c3.846,1.238,8.632,2.789,14.111,2.789c3.319,0,6.508-0.549,9.717-1.672l0.37,6.647H55.939
		V74.035z"/>
</g>
</svg>
